<?xml version="1.0" encoding="UTF-8" standalone="no"?>
<svg
   xmlns:dc="http://purl.org/dc/elements/1.1/"
   xmlns:cc="http://creativecommons.org/ns#"
   xmlns:rdf="http://www.w3.org/1999/02/22-rdf-syntax-ns#"
   xmlns:svg="http://www.w3.org/2000/svg"
   xmlns="http://www.w3.org/2000/svg"
   xmlns:sodipodi="http://sodipodi.sourceforge.net/DTD/sodipodi-0.dtd"
   xmlns:inkscape="http://www.inkscape.org/namespaces/inkscape"
   viewBox="0 0 43 56"
   version="1.1"
   id="svg851"
   sodipodi:docname="docxv3.svg"
   inkscape:version="0.92.2 (5c3e80d, 2017-08-06)">
  <metadata
     id="metadata857">
    <rdf:RDF>
      <cc:Work
         rdf:about="">
        <dc:format>image/svg+xml</dc:format>
        <dc:type
           rdf:resource="http://purl.org/dc/dcmitype/StillImage" />
        <dc:title>pdfFichier 1</dc:title>
      </cc:Work>
    </rdf:RDF>
  </metadata>
  <defs
     id="defs855" />
  <sodipodi:namedview
     pagecolor="#ffffff"
     bordercolor="#666666"
     borderopacity="1"
     objecttolerance="10"
     gridtolerance="10"
     guidetolerance="10"
     inkscape:pageopacity="0"
     inkscape:pageshadow="2"
     inkscape:window-width="1366"
     inkscape:window-height="705"
     id="namedview853"
     showgrid="false"
     inkscape:zoom="9.6071429"
     inkscape:cx="37.263484"
     inkscape:cy="28"
     inkscape:window-x="-8"
     inkscape:window-y="-8"
     inkscape:window-maximized="1"
     inkscape:current-layer="svg851"
     showguides="false" />
  <title
     id="title837">pdfFichier 1</title>
  <g
     id="Calque_2"
     data-name="Calque 2">
    <g
       id="Calque_1-2"
       data-name="Calque 1">
      <path
         d="M28.3,1.5A5.37,5.37,0,0,0,24.5,0H9.5A9.56,9.56,0,0,0,0,9.5v37A9.56,9.56,0,0,0,9.5,56h24A9.56,9.56,0,0,0,43,46.5V17.7a5.44,5.44,0,0,0-1.7-4Zm9.4,13H30.1A2.48,2.48,0,0,1,27.6,12V5Zm2.3,32A6.49,6.49,0,0,1,33.5,53H9.5A6.49,6.49,0,0,1,3,46.5V9.5A6.49,6.49,0,0,1,9.5,3H24.6v9a5.55,5.55,0,0,0,5.5,5.5H40v29Z"
         id="path839"
         style="fill:#2769e6;fill-opacity:1" />
      <path
         d="M12,34.61a.86.86,0,0,1-1.72,0A.86.86,0,0,1,12,34.61Z"
         id="path841"
         style="fill:#2769e6;fill-opacity:1" />
    </g>
  </g>
  <text
     xml:space="preserve"
     style="font-style:normal;font-variant:normal;font-weight:bold;font-stretch:normal;font-size:10.66666698px;line-height:0;font-family:sans-serif;-inkscape-font-specification:'sans-serif Bold';letter-spacing:0px;word-spacing:0px;fill:#2769e6;fill-opacity:1;stroke:none"
     x="11.553905"
     y="35.286247"
     id="text1497"><tspan
       sodipodi:role="line"
       id="tspan1495"
       x="11.553905"
       y="35.286247">docx</tspan></text>
  <text
     xml:space="preserve"
     style="font-style:normal;font-weight:normal;font-size:12px;line-height:1.25;font-family:sans-serif;letter-spacing:0px;word-spacing:0px;fill:#000000;fill-opacity:1;stroke:none"
     x="18.111525"
     y="24.148699"
     id="text1501"><tspan
       sodipodi:role="line"
       id="tspan1499"
       x="18.111525"
       y="34.765884" /><tspan
       sodipodi:role="line"
       x="18.111525"
       y="49.765884"
       id="tspan1503" /></text>
</svg>
