<?xml version="1.0" encoding="UTF-8" standalone="no"?>
<svg
   xmlns:dc="http://purl.org/dc/elements/1.1/"
   xmlns:cc="http://creativecommons.org/ns#"
   xmlns:rdf="http://www.w3.org/1999/02/22-rdf-syntax-ns#"
   xmlns:svg="http://www.w3.org/2000/svg"
   xmlns="http://www.w3.org/2000/svg"
   xmlns:sodipodi="http://sodipodi.sourceforge.net/DTD/sodipodi-0.dtd"
   xmlns:inkscape="http://www.inkscape.org/namespaces/inkscape"
   viewBox="0 0 806.01 767.64"
   version="1.1"
   id="svg30"
   sodipodi:docname="dossier.svg"
   inkscape:version="0.92.2 (5c3e80d, 2017-08-06)">
  <metadata
     id="metadata36">
    <rdf:RDF>
      <cc:Work
         rdf:about="">
        <dc:format>image/svg+xml</dc:format>
        <dc:type
           rdf:resource="http://purl.org/dc/dcmitype/StillImage" />
      </cc:Work>
    </rdf:RDF>
  </metadata>
  <defs
     id="defs34" />
  <sodipodi:namedview
     pagecolor="#ffffff"
     bordercolor="#666666"
     borderopacity="1"
     objecttolerance="10"
     gridtolerance="10"
     guidetolerance="10"
     inkscape:pageopacity="0"
     inkscape:pageshadow="2"
     inkscape:window-width="1366"
     inkscape:window-height="705"
     id="namedview32"
     showgrid="false"
     inkscape:zoom="0.70084934"
     inkscape:cx="171.14348"
     inkscape:cy="383.82001"
     inkscape:window-x="-8"
     inkscape:window-y="-8"
     inkscape:window-maximized="1"
     inkscape:current-layer="svg30" />
  <title
     id="title24">dossierFichier 1</title>
  <g
     id="Calque_2"
     data-name="Calque 2">
    <g
       id="Calque_1-2"
       data-name="Calque 1">
      <path
         d="M534.88,240.75c356,54,338-2,82,251,59,356,106,321-214,155-320,166-272,201-213-155-257-253-275-197,82-251C432.88-80.25,373.88-80.25,534.88,240.75Z"
         id="path26" />
    </g>
  </g>
  <path
     style="stroke-width:1.42684019"
     d="m 154.50691,763.45163 c -6.33742,-5.33258 -7.91175,-14.72775 -5.96799,-35.61512 1.59145,-17.10146 5.63923,-40.17903 22.64999,-129.13437 12.68543,-66.3367 19.29934,-105.05152 18.36332,-107.49074 C 188.73124,489.07194 143.184,445.29817 94.332391,399.69911 26.44377,336.33056 5.1552111,313.56612 1.6660931,300.60851 c -3.3751184,-12.53423 5.1647008,-19.5062 31.5206399,-25.7337 17.128922,-4.0473 31.309989,-6.13775 101.857687,-15.01494 34.52953,-4.34494 79.58474,-10.25026 100.12266,-13.12293 l 37.34169,-5.22305 16.39458,-33.64835 c 9.01702,-18.5066 26.68679,-55.57191 39.26617,-82.36737 40.64737,-86.583396 50.64238,-105.331896 62.45445,-117.151155 6.38157,-6.3854502 8.27937,-7.49091089 12.86005,-7.49091089 4.67402,0 6.40462,1.06917339 13.29133,8.21142359 10.89814,11.3025353 21.32828,30.4685723 51.58069,94.7827423 14.14421,30.06942 34.71093,73.34162 45.70385,96.16046 l 19.9871,41.48879 11.67105,1.60133 c 6.4191,0.88073 23.25917,3.2133 37.42241,5.18347 14.16323,1.97016 53.97207,7.14496 88.46409,11.49954 88.51663,11.17513 112.64461,15.74591 125.86848,23.84437 12.82567,7.85461 9.68686,19.91678 -11.47783,44.10821 -5.90034,6.74416 -37.59879,37.62555 -70.441,68.62532 -32.84221,30.99977 -68.67998,65.02253 -79.6395,75.60614 l -19.92638,19.2429 5.35609,30.55951 c 2.94584,16.80774 11.11547,60.83897 18.15471,97.84719 15.54811,81.74271 18.60025,101.15355 18.81022,119.6284 0.17499,15.39539 -1.61244,21.28251 -7.77151,25.59651 -9.91837,6.94708 -33.34988,-2.19013 -100.28291,-39.10574 -63.27026,-34.89546 -91.73521,-50.40471 -120.01465,-65.39053 l -27.27004,-14.45092 -21.95595,11.52894 c -22.89746,12.02331 -61.54,33.06043 -117.96429,64.22011 -59.52913,32.87428 -86.9526,45.42501 -99.25415,45.42501 -3.25913,0 -6.48066,-1.25465 -9.28892,-3.61765 z"
     id="path4532"
     inkscape:connector-curvature="0" />
  <path
     style="fill:#ffffff;stroke-width:1.42684019"
     d="m 154.50691,763.45163 c -3.18049,-2.6762 -4.72426,-5.6645 -5.93218,-11.48301 -2.92292,-14.07964 -0.0675,-34.85927 17.13929,-124.72968 12.35638,-64.53666 22.10464,-117.89571 23.59541,-129.15406 l 0.94798,-7.15923 -29.03334,-27.85546 C 145.25574,447.74968 111.62228,415.8997 86.48306,392.29243 16.904243,326.95369 0.98629961,309.04037 0.98629961,296.0783 c 0,-9.04613 7.18786549,-14.44111 26.29449539,-19.73583 15.458122,-4.28366 38.828593,-7.88326 107.050205,-16.48826 34.13715,-4.30582 79.20524,-10.21541 100.1513,-13.13243 l 38.08376,-5.30366 15.27018,-31.46021 c 8.39861,-17.30311 25.99733,-54.25398 39.10828,-82.11303 42.59876,-90.516869 53.22347,-110.337331 64.93069,-121.1286707 5.07139,-4.674647 7.43215,-5.86010519 11.66998,-5.86010519 4.59954,0 6.37515,1.10205029 13.23016,8.21142359 10.4845,10.8735443 20.89255,29.6933063 47.14875,85.2539563 35.4749,75.068316 50.91976,107.378666 61.04014,127.694846 l 9.59543,19.26234 21.4026,3.16685 c 11.77143,1.74176 49.333,6.73951 83.47015,11.10608 93.97027,12.02001 103.41258,13.33526 122.93889,17.12449 49.36961,9.58055 53.99342,20.3477 23.63801,55.04421 -5.89258,6.73526 -38.87519,38.89541 -73.29469,71.46699 -34.4195,32.57158 -70.21116,66.55375 -79.53702,75.51593 l -16.95611,16.29489 3.83302,22.81824 c 3.42229,20.37314 7.44447,42.06506 27.90998,150.52044 10.74971,56.96725 13.11118,84.1924 8.12982,93.72813 -8.77427,16.79639 -26.45367,11.34734 -107.26625,-33.06104 -55.20744,-30.33777 -110.08874,-60.17459 -129.29358,-70.2919 l -16.57319,-8.73092 -27.65885,14.63749 c -29.5709,15.64939 -56.28611,30.20383 -109.49846,59.65474 -60.10728,33.26696 -89.59851,46.79599 -102.00816,46.79599 -3.25913,0 -6.48066,-1.25465 -9.28892,-3.61765 z"
     id="path4612"
     inkscape:connector-curvature="0" />
</svg>
