<svg xmlns="http://www.w3.org/2000/svg" viewBox="0 0 2319.92 368.3"><defs><style>.cls-1{fill:#145ac1;}.cls-2{fill:#b14aed;}.cls-3{fill:#2979ff;}</style></defs><title>Fichier 1</title><g id="Calque_2" data-name="Calque 2"><g id="Calque_1-2" data-name="Calque 1"><path class="cls-1" d="M806.6,95.46a71.92,71.92,0,0,1,15.34,22.4,67.6,67.6,0,0,1,5.56,27.41V316.42H788.73v-109H601.29v109H562.86V145.27a67.6,67.6,0,0,1,5.56-27.41,71.82,71.82,0,0,1,15.34-22.4,66.35,66.35,0,0,1,22.25-15,71,71,0,0,1,27.65-5.35h123a69.82,69.82,0,0,1,27.48,5.35A70.72,70.72,0,0,1,806.6,95.46Zm-17.87,50.14a33.07,33.07,0,0,0-10.12-24.4q-9.44-10-24.27-10H636a33.63,33.63,0,0,0-24.61,10A34.65,34.65,0,0,0,604,132.07a33.46,33.46,0,0,0-2.7,13.54v25.74H788.73Z"/><path class="cls-1" d="M1145.74,143.93a69.17,69.17,0,0,1,27.64,5.52A72.58,72.58,0,0,1,1196,164.66a70.06,70.06,0,0,1,15.17,22.23,68.24,68.24,0,0,1,5.39,27.24V316.42H1178.1v-102a33.08,33.08,0,0,0-10.12-24.4,35.17,35.17,0,0,0-11-7.35,34.36,34.36,0,0,0-13.65-2.67h-51.24a34.32,34.32,0,0,0-13.65,2.67,35,35,0,0,0-11,7.35,33.09,33.09,0,0,0-10.11,24.4v102H1019v-102a33.92,33.92,0,0,0-2.7-13.37,34,34,0,0,0-18.54-18.39A34.73,34.73,0,0,0,984.26,180H932.68a33.48,33.48,0,0,0-13.32,2.67,35,35,0,0,0-11,7.35q-9.78,9.7-10.45,24.4v102H859.52V214.13a66.43,66.43,0,0,1,5.56-27.24,73.4,73.4,0,0,1,37.76-37.44,67.94,67.94,0,0,1,27.48-5.52h56.3a68.37,68.37,0,0,1,28.49,6,75.1,75.1,0,0,1,23.09,16,75.57,75.57,0,0,1,22.92-16,67.21,67.21,0,0,1,28.32-6Z"/><path class="cls-1" d="M1248.56,75.07H1287v37.44h-38.43ZM1287,143.93h-38.43V316.42H1287Z"/><path class="cls-1" d="M1391.16,316.42a68.36,68.36,0,0,1-27.31-5.51,72.31,72.31,0,0,1-22.59-15.21,65.65,65.65,0,0,1-15.17-22.07,69.38,69.38,0,0,1-5.39-27.41V75.07h38.43V245.89a33.22,33.22,0,0,0,2.53,13,34.48,34.48,0,0,0,30.17,21.39l7.08.34v35.77Z"/><path class="cls-1" d="M1506.79,316.42a69.8,69.8,0,0,1-27.48-5.34,70.59,70.59,0,0,1-22.42-15,72.38,72.38,0,0,1-15.34-22.23,66.44,66.44,0,0,1-5.56-27.24V180.37h-16.85v-36.1H1436V94.13h38.77v50.14h52.92v36.1h-52.92v65.85q0,14,9.44,23.4,8.77,9.7,22.93,10.7h27.3v36.1Z"/><path class="cls-1" d="M1772.44,164.66A69,69,0,0,1,1793,214.47v32.09a68.3,68.3,0,0,1-5.39,27.24,70.79,70.79,0,0,1-37.76,37.27,71.09,71.09,0,0,1-27.65,5.34h-93.38a71,71,0,0,1-27.64-5.34,66.25,66.25,0,0,1-22.25-15,72.19,72.19,0,0,1-15.34-22.23,66.35,66.35,0,0,1-5.57-27.24V214.47a67.56,67.56,0,0,1,5.57-27.41,71.77,71.77,0,0,1,15.34-22.4,66.35,66.35,0,0,1,22.25-15,71,71,0,0,1,27.64-5.35h93.38a71.09,71.09,0,0,1,27.65,5.35A70.26,70.26,0,0,1,1772.44,164.66Zm-17.87,50.14a33.6,33.6,0,0,0-2.69-13.54,34.79,34.79,0,0,0-7.42-10.86,33.64,33.64,0,0,0-24.61-10h-88.67a33.63,33.63,0,0,0-24.61,10,34.61,34.61,0,0,0-7.42,10.86,33.5,33.5,0,0,0-2.69,13.54v31.42a32.64,32.64,0,0,0,2.69,13.21,34.54,34.54,0,0,0,7.42,10.86,33.63,33.63,0,0,0,24.61,10h88.67a33.64,33.64,0,0,0,24.61-10,34.73,34.73,0,0,0,7.42-10.86,32.73,32.73,0,0,0,2.69-13.21Z"/><path class="cls-1" d="M2017.86,316.42v-102a33.08,33.08,0,0,0-10.12-24.4,35.17,35.17,0,0,0-11-7.35,33.49,33.49,0,0,0-13.32-2.67h-89a33.47,33.47,0,0,0-13.32,2.67,35,35,0,0,0-11,7.35,33.08,33.08,0,0,0-10.12,24.4v102h-38.43V214.13a68.15,68.15,0,0,1,5.39-27.24,70,70,0,0,1,15.17-22.23,73.06,73.06,0,0,1,22.42-15.21,67.94,67.94,0,0,1,27.48-5.52h93.72a68,68,0,0,1,27.48,5.52,73.12,73.12,0,0,1,22.42,15.21,70.06,70.06,0,0,1,15.17,22.23,68.24,68.24,0,0,1,5.39,27.24V316.42Z"/><path class="cls-1" d="M2123.72,250.57a29.8,29.8,0,0,0,3.37,10.7,44,44,0,0,0,6.41,9,33.63,33.63,0,0,0,24.61,10h140.58v36.1H2155.74a71,71,0,0,1-27.64-5.34,66.25,66.25,0,0,1-22.25-15,71.58,71.58,0,0,1-15.34-22.4,67.49,67.49,0,0,1-5.57-27.41V214.13a66.39,66.39,0,0,1,5.57-27.24,72.33,72.33,0,0,1,15.34-22.23,66.35,66.35,0,0,1,22.25-15,71,71,0,0,1,27.64-5.35h93.38a71.09,71.09,0,0,1,27.65,5.35,70.73,70.73,0,0,1,37.76,37.27,68.34,68.34,0,0,1,5.39,27.24v36.44Zm9.78-60.17a34.61,34.61,0,0,0-7.42,10.86,32.66,32.66,0,0,0-2.69,13.21h158.11a32.75,32.75,0,0,0-2.69-13.21,34.79,34.79,0,0,0-7.42-10.86,33.64,33.64,0,0,0-24.61-10H2158.1A33.63,33.63,0,0,0,2133.49,190.4Z"/><path class="cls-2" d="M435.11,111.49a126.57,126.57,0,0,1,4,31.24c0,68-53.52,123.14-119.54,123.14S200,210.74,200,142.73C200,82.26,242.31,32,298.11,21.57l-.3-.51c-.29-.48-.6-1-.9-1.43C218.75,21.52,156,84.77,156,162.53c0,78.94,64.7,142.93,144.52,142.93S445,241.47,445,162.53a141.06,141.06,0,0,0-9.31-50.41Z"/><path class="cls-3" d="M449.19,124.9a153.27,153.27,0,0,1,5.14,39.16c0,85.36-69.75,154.55-155.78,154.55S142.77,249.41,142.77,164.05c0-81.43,63.48-148.15,144-154.11-4.31-.28-8.66-.44-13-.44-104,0-188.33,80.32-188.33,179.39s84.32,179.4,188.33,179.4S462.08,288,462.08,188.9a171.29,171.29,0,0,0-12.21-63.46Z"/><path class="cls-1" d="M126.12,322.5C92,287.22,71.51,239.61,72.69,187.57,74.91,89.9,152.54,10.66,251,.11,245.47,0,239.89,0,234.27.16,100.55,4.86-4.28,108.61.13,231.88c1.82,50.91,22,97.18,54.47,133.64Z"/></g></g></svg>