<?xml version="1.0" encoding="UTF-8" standalone="no"?>
<svg
        xmlns:dc="http://purl.org/dc/elements/1.1/"
        xmlns:cc="http://creativecommons.org/ns#"
        xmlns:rdf="http://www.w3.org/1999/02/22-rdf-syntax-ns#"
        xmlns:svg="http://www.w3.org/2000/svg"
        xmlns="http://www.w3.org/2000/svg"
        xmlns:sodipodi="http://sodipodi.sourceforge.net/DTD/sodipodi-0.dtd"
        xmlns:inkscape="http://www.inkscape.org/namespaces/inkscape"
        viewBox="0 0 40 40"
        version="1.1"
        id="svg2053"
        sodipodi:docname="search.svg"
        inkscape:version="0.92.2 (5c3e80d, 2017-08-06)">
    <metadata
            id="metadata2059">
        <rdf:RDF>
            <cc:Work
                    rdf:about="">
                <dc:format>image/svg+xml</dc:format>
                <dc:type
                        rdf:resource="http://purl.org/dc/dcmitype/StillImage" />
                <dc:title>search Fichier 1</dc:title>
            </cc:Work>
        </rdf:RDF>
    </metadata>
    <defs
            id="defs2057" />
    <sodipodi:namedview
            pagecolor="#ffffff"
            bordercolor="#666666"
            borderopacity="1"
            objecttolerance="10"
            gridtolerance="10"
            guidetolerance="10"
            inkscape:pageopacity="0"
            inkscape:pageshadow="2"
            inkscape:window-width="1366"
            inkscape:window-height="705"
            id="namedview2055"
            showgrid="false"
            inkscape:zoom="5.9"
            inkscape:cx="-1.1016949"
            inkscape:cy="20"
            inkscape:window-x="-8"
            inkscape:window-y="-8"
            inkscape:window-maximized="1"
            inkscape:current-layer="svg2053" />
    <title
            id="title2047">search Fichier 1</title>
    <g
            id="Calque_2"
            data-name="Calque 2">
        <g
                id="Calque_1-2"
                data-name="Calque 1">
            <path
                    d="M29.88,23.93a1.69,1.69,0,0,0,.23,1.94l9,9a3,3,0,0,1-4.24,4.24l-9-9a1.67,1.67,0,0,0-1.95-.22,7.11,7.11,0,0,1-.92.5A16,16,0,1,1,30.38,23,7.26,7.26,0,0,1,29.88,23.93ZM16,26A10,10,0,1,0,6,16,10,10,0,0,0,16,26Z"
                    id="path2049"
                    style="fill:#ffffff;fill-opacity:1" />
        </g>
    </g>
</svg>
