<?xml version="1.0" encoding="UTF-8" standalone="no"?>
<svg
   xmlns:dc="http://purl.org/dc/elements/1.1/"
   xmlns:cc="http://creativecommons.org/ns#"
   xmlns:rdf="http://www.w3.org/1999/02/22-rdf-syntax-ns#"
   xmlns:svg="http://www.w3.org/2000/svg"
   xmlns="http://www.w3.org/2000/svg"
   xmlns:sodipodi="http://sodipodi.sourceforge.net/DTD/sodipodi-0.dtd"
   xmlns:inkscape="http://www.inkscape.org/namespaces/inkscape"
   viewBox="0 0 88.33 68.3"
   version="1.1"
   id="svg4664"
   sodipodi:docname="utilisateurs.svg"
   inkscape:version="0.92.2 (5c3e80d, 2017-08-06)">
  <metadata
     id="metadata4670">
    <rdf:RDF>
      <cc:Work
         rdf:about="">
        <dc:format>image/svg+xml</dc:format>
        <dc:type
           rdf:resource="http://purl.org/dc/dcmitype/StillImage" />
      </cc:Work>
    </rdf:RDF>
  </metadata>
  <defs
     id="defs4668" />
  <sodipodi:namedview
     pagecolor="#ffffff"
     bordercolor="#666666"
     borderopacity="1"
     objecttolerance="10"
     gridtolerance="10"
     guidetolerance="10"
     inkscape:pageopacity="0"
     inkscape:pageshadow="2"
     inkscape:window-width="1366"
     inkscape:window-height="705"
     id="namedview4666"
     showgrid="false"
     inkscape:zoom="3.4553439"
     inkscape:cx="44.165001"
     inkscape:cy="-6.0775426"
     inkscape:window-x="-8"
     inkscape:window-y="-8"
     inkscape:window-maximized="1"
     inkscape:current-layer="svg4664" />
  <title
     id="title4658">utilisateursFichier 1</title>
  <g
     id="Calque_2"
     data-name="Calque 2">
    <g
       id="Calque_1-2"
       data-name="Calque 1">
      <path
         d="M21.85,39.05a9.44,9.44,0,1,0-9.44-9.44,9.44,9.44,0,0,0,9.44,9.44Zm8.23,10.42A18.74,18.74,0,0,0,20.32,47C1.67,47,0,68.3,0,68.3H24.29l0-.34a50.46,50.46,0,0,1,5.12-17.33c.21-.4.43-.78.64-1.16Zm28.46-21.8A13.84,13.84,0,1,0,44.71,13.83,13.84,13.84,0,0,0,58.54,27.67Zm0,9.36C31.21,37,28.76,68.3,28.76,68.3H88.33S85.88,37,58.54,37Z"
         id="path4660" />
    </g>
  </g>
  <path
     style="fill:#f9f9f9;stroke-width:0.28940681"
     d="m 29.02681,66.954261 c 1.725038,-10.972856 6.92207,-20.469933 13.732485,-25.094798 2.417688,-1.64182 5.474013,-3.054968 8.264647,-3.82131 1.994772,-0.547788 3.056369,-0.636176 7.66928,-0.63854 5.018374,-0.0026 5.516198,0.04698 7.940848,0.790429 3.459221,1.060667 7.085769,2.989841 9.635191,5.125524 5.744502,4.81224 10.414249,14.18818 11.773401,23.638695 l 0.176894,1.229979 H 58.5265 28.833446 Z"
     id="path4672"
     inkscape:connector-curvature="0" />
  <path
     style="fill:#f9f9f9;stroke-width:0.28940681"
     d="m 0.2330498,67.515824 c 0,-1.078322 1.1595539,-5.353888 2.0362628,-7.508213 1.6876004,-4.146917 4.5354799,-7.825439 7.6682525,-9.904855 4.6552929,-3.090007 11.4475619,-3.828407 17.0779049,-1.85657 2.948534,1.032624 2.914942,0.953942 1.606708,3.763277 -0.621851,1.335375 -1.536704,3.586827 -2.033008,5.003226 -0.89934,2.566618 -2.335356,8.969011 -2.335356,10.412044 V 68.18424 H 12.243432 0.2330498 Z"
     id="path4674"
     inkscape:connector-curvature="0" />
  <path
     style="fill:#f9f9f9;stroke-width:0.28940681"
     d="m 19.750078,38.699908 c -2.57266,-0.665418 -5.014493,-2.632592 -6.250485,-5.035474 -0.887924,-1.726207 -1.065281,-5.114865 -0.376388,-7.191419 0.719529,-2.168902 3.426331,-4.875703 5.595232,-5.595232 2.313134,-0.767379 5.504252,-0.524352 7.519886,0.572694 3.075847,1.674086 4.826556,4.680254 4.800295,8.24266 -0.01926,2.612622 -0.674159,4.268997 -2.449312,6.194811 -2.165655,2.349457 -5.960256,3.556607 -8.839228,2.81196 z"
     id="path4676"
     inkscape:connector-curvature="0" />
  <path
     style="fill:#ffffff;stroke-width:0.28940681"
     d="M 56.812078,27.338518 C 48.222407,26.293675 42.814669,17.588878 45.644873,9.3627482 47.667468,3.4839739 53.277431,-0.18772366 59.561442,0.25441181 67.84915,0.837525 73.687912,8.6457967 71.887511,16.738261 70.339765,23.69508 63.927277,28.204006 56.812078,27.338518 Z"
     id="path4678"
     inkscape:connector-curvature="0" />
  <path
     style="fill:#ffffff;stroke-width:0.28940681"
     d="m 0.23507738,67.967185 c 0.006009,-0.6433 1.21935572,-5.141006 1.89327722,-7.018114 1.1804449,-3.287954 2.8830337,-5.98468 5.3154101,-8.419065 3.8029773,-3.806117 8.0543383,-5.363964 13.9159813,-5.099301 3.222476,0.1455 6.676414,1.008376 7.583505,1.894539 0.463749,0.453049 0.432828,0.619217 -0.520467,2.796919 -2.197446,5.019834 -4.16897,12.050477 -4.16897,14.866944 V 68.18424 H 12.243432 c -6.6057103,0 -12.00946979,-0.09767 -12.00835462,-0.217055 z"
     id="path4680"
     inkscape:connector-curvature="0" />
  <path
     style="fill:#ffffff;stroke-width:0.28940681"
     d="m 29.367768,65.87809 c 0.830641,-4.809857 2.833563,-10.446658 5.091587,-14.329198 3.579664,-6.155024 7.828902,-9.992861 13.628928,-12.30941 3.815122,-1.523772 5.743053,-1.798208 11.617863,-1.653773 5.762161,0.141665 7.087271,0.450491 11.571904,2.696918 6.48732,3.249603 11.418299,9.470966 14.557943,18.367589 0.910109,2.578925 2.087315,7.545036 2.087315,8.805457 V 68.18424 H 58.446407 28.969506 Z"
     id="path4682"
     inkscape:connector-curvature="0" />
  <path
     style="fill:#ffffff;stroke-width:0.28940681"
     d="m 18.25924,37.956637 c -1.670926,-0.777955 -3.811193,-2.756884 -4.599732,-4.252994 -0.344012,-0.6527 -0.553095,-1.850292 -0.636835,-3.6477 -0.113837,-2.443388 -0.05828,-2.811672 0.639242,-4.237352 0.900872,-1.841316 2.87758,-3.760034 4.707684,-4.569576 1.504656,-0.665581 4.540241,-0.779971 6.345456,-0.239115 5.010058,1.50105 7.671716,7.833115 5.293919,12.594193 -2.080444,4.165685 -7.688817,6.243237 -11.749734,4.352544 z"
     id="path4684"
     inkscape:connector-curvature="0" />
  <path
     style="fill:#ffffff;stroke-width:0.28940681"
     d="m 55.626032,26.947903 c -2.575135,-0.560249 -4.643649,-1.725525 -6.623855,-3.73148 -6.580783,-6.666354 -4.661049,-17.4829326 3.821779,-21.5334896 2.211115,-1.05580879 2.314248,-1.07517914 5.724563,-1.07517914 3.19703,0 3.610073,0.0642395 5.200093,0.80875654 3.868658,1.8114747 6.511527,4.7421465 7.675825,8.5117056 2.305479,7.4642746 -2.396289,15.4023776 -10.088621,17.0328476 -2.320442,0.491842 -3.400019,0.489353 -5.709784,-0.01316 z"
     id="path4686"
     inkscape:connector-curvature="0" />
</svg>
