<svg xmlns="http://www.w3.org/2000/svg" viewBox="0 0 199.99 32.01"><defs><style>.cls-1{fill:#fff;}.cls-2{opacity:0.5;}.cls-3{opacity:0.7;}.cls-4{opacity:0.9;}</style></defs><title>logo amiltoneFichier 1</title><g id="Calque_2" data-name="Calque 2"><g id="Calque_1-2" data-name="Calque 1"><g id="Calque_2-2" data-name="Calque 2"><g id="Calque_1-2-2" data-name="Calque 1-2"><path class="cls-1" d="M69.52,8.3a5.84,5.84,0,0,1,1.32,2,6.16,6.16,0,0,1,.48,2.4V27.54H68V18H51.84V27.5H48.52V12.63a6,6,0,0,1,.47-2.4,6.23,6.23,0,0,1,1.33-2,5.81,5.81,0,0,1,2-1.31,6.32,6.32,0,0,1,2.39-.47H65.21A5.82,5.82,0,0,1,67.57,7,6,6,0,0,1,69.52,8.3ZM68,12.67a2.87,2.87,0,0,0-.79-2.14,2.75,2.75,0,0,0-2.09-.87H54.82a2.88,2.88,0,0,0-2.11.87,3.12,3.12,0,0,0-.66,1,3.43,3.43,0,0,0-.21,1.19V14.9H68Z"/><path class="cls-1" d="M98.8,12.51a5.93,5.93,0,0,1,2.39.47,7,7,0,0,1,2,1.33,6.31,6.31,0,0,1,1.3,2,6.21,6.21,0,0,1,.46,2.37v8.89h-3.38V18.63a2.85,2.85,0,0,0-.89-2.11,2.65,2.65,0,0,0-2.11-.95H94.14a2.73,2.73,0,0,0-1.26.24,2.92,2.92,0,0,0-.95.63,2.85,2.85,0,0,0-.87,2.11v8.87H87.84V18.63A3.06,3.06,0,0,0,87,16.52a2.56,2.56,0,0,0-1-.71,3,3,0,0,0-1.17-.24H80.39a2.82,2.82,0,0,0-1.15.24,3,3,0,0,0-1.84,2.74v8.87H74.09V18.61a5.87,5.87,0,0,1,.47-2.37,6.55,6.55,0,0,1,1.32-2,6.76,6.76,0,0,1,2-1.33,5.87,5.87,0,0,1,2.37-.47H85a5.69,5.69,0,0,1,2.47.53,6.48,6.48,0,0,1,2,1.38,6.94,6.94,0,0,1,2-1.38,5.78,5.78,0,0,1,2.45-.53Z"/><path class="cls-1" d="M107.62,6.52h3.31V9.88h-3.31Zm3.31,5.93h-3.31v15h3.31Z"/><path class="cls-1" d="M119.9,27.5a5.8,5.8,0,0,1-2.35-.47,7.09,7.09,0,0,1-2-1.32,5.93,5.93,0,0,1-1.76-4.31h0V6.52h3.3V21.38a2.87,2.87,0,0,0,.22,1.12,3.76,3.76,0,0,0,.59.93,3.12,3.12,0,0,0,2,.93h.62v3.1Z"/><path class="cls-1" d="M129.86,27.5a5.87,5.87,0,0,1-2.37-.47,5.78,5.78,0,0,1-2-1.3,6.16,6.16,0,0,1-1.33-2,5.76,5.76,0,0,1-.49-2.35V15.67h-1.38V12.55h1.44V8.18h3.36v4.37h4.54v3.12h-4.54V21.4a2.66,2.66,0,0,0,.81,2,2.83,2.83,0,0,0,2,.93h2.35v3.14Z"/><path class="cls-1" d="M152.76,14.31a6.52,6.52,0,0,1,1.31,2,5.87,5.87,0,0,1,.47,2.37v2.81a5.79,5.79,0,0,1-.41,2.25,6.27,6.27,0,0,1-1.31,2,5.55,5.55,0,0,1-2,1.3,5.87,5.87,0,0,1-2.37.47h-8.09A6,6,0,0,1,138,27a5.42,5.42,0,0,1-2-1.3,6.16,6.16,0,0,1-1.33-2,5.85,5.85,0,0,1-.33-2.27V18.63a5.87,5.87,0,0,1,.47-2.37,6,6,0,0,1,1.33-2,5.89,5.89,0,0,1,4.3-1.76h8a5.86,5.86,0,0,1,2.38.45A6,6,0,0,1,152.76,14.31Zm-1.54,4.36a2.66,2.66,0,0,0-.24-1.18,2.69,2.69,0,0,0-.63-.93,2.83,2.83,0,0,0-2.15-.89h-7.61a3.11,3.11,0,0,0-2.76,1.82,2.66,2.66,0,0,0-.24,1.18V21.4a2.65,2.65,0,0,0,.24,1.14,3,3,0,0,0,2.76,1.82h7.61a2.85,2.85,0,0,0,2.11-.87,3,3,0,0,0,.64-.95,2.64,2.64,0,0,0,.23-1.14Z"/><path class="cls-1" d="M173.88,27.5V18.63a2.8,2.8,0,0,0-.86-2.11,2.74,2.74,0,0,0-.91-.71,3,3,0,0,0-1.17-.24h-7.67a2.81,2.81,0,0,0-1.14.24,3,3,0,0,0-.95.63,2.88,2.88,0,0,0-.87,2.11v8.87H157V18.61a5.86,5.86,0,0,1,.46-2.37,6.31,6.31,0,0,1,1.3-2,6.63,6.63,0,0,1,2-1.33,5.8,5.8,0,0,1,2.37-.47h8.08a5.87,5.87,0,0,1,2.37.47,6.58,6.58,0,0,1,2,1.33,6,6,0,0,1,1.33,2,6.2,6.2,0,0,1,.45,2.37h0v8.87Z"/><path class="cls-1" d="M183,21.73a2.48,2.48,0,0,0,.3.93,3.61,3.61,0,0,0,.55.79,2.87,2.87,0,0,0,2.12.87h12.11v3.14H185.74a6,6,0,0,1-2.39-.47,5.59,5.59,0,0,1-2-1.3,6.3,6.3,0,0,1-1.32-2,6,6,0,0,1-.47-2.39V18.61a5.87,5.87,0,0,1,.47-2.37,6.37,6.37,0,0,1,1.32-2,5.91,5.91,0,0,1,4.37-1.72h8.1a5.94,5.94,0,0,1,2.39.45,6.11,6.11,0,0,1,2,1.31,5.78,5.78,0,0,1,1.3,2,6,6,0,0,1,.48,2.37v3.08Zm.85-5.21a2.74,2.74,0,0,0-.65.93,3.17,3.17,0,0,0-.22,1.14h13.62a3.4,3.4,0,0,0-.22-1.14,3.12,3.12,0,0,0-2.77-1.78H186a2.83,2.83,0,0,0-2.12.89Z"/><g class="cls-2"><path class="cls-1" d="M37.55,9.68a10.92,10.92,0,0,1,.34,2.73,10.52,10.52,0,0,1-10.3,10.71A10.53,10.53,0,0,1,17.24,12.41h0A10.61,10.61,0,0,1,25.7,2h0V1.84A12.42,12.42,0,1,0,38.46,14.27a12.13,12.13,0,0,0-.91-4.53Z"/></g><g class="cls-3"><path class="cls-1" d="M38.72,10.85a13.11,13.11,0,0,1,.45,3.42A13.44,13.44,0,1,1,24.73.87a10.65,10.65,0,0,0-1.13,0A15.81,15.81,0,0,0,7.38,16.25v.17A15.8,15.8,0,0,0,23.4,32h.2A15.81,15.81,0,0,0,39.82,16.62v-.2a15,15,0,0,0-1-5.51Z"/></g><g class="cls-4"><path class="cls-1" d="M10.88,28A16.41,16.41,0,0,1,6.27,16.3,17,17,0,0,1,21.75,0H20.3C8.69.41-.36,9.44,0,20.15A18.51,18.51,0,0,0,4.69,31.77Z"/></g></g></g></g></g></svg>